<?xml version="1.0" encoding="iso-8859-1"?>
<!-- Uploaded to: SVG Repo, www.svgrepo.com, Generator: SVG Repo Mixer Tools -->
<!DOCTYPE svg PUBLIC "-//W3C//DTD SVG 1.1//EN" "http://www.w3.org/Graphics/SVG/1.1/DTD/svg11.dtd">
<svg fill="#000000" version="1.1" id="Capa_1" xmlns="http://www.w3.org/2000/svg" xmlns:xlink="http://www.w3.org/1999/xlink" 
	 width="800px" height="800px" viewBox="0 0 32.27 32.27" xml:space="preserve"
	>
<g>
	<g>
		<path d="M18.527,12.724c-0.127-0.366-0.271-0.704-0.418-1.042c1.428-1.255,3.342-1.864,5.75-1.787
			c0.279,0.001,0.506-0.209,0.514-0.486c0.01-0.276-0.209-0.506-0.484-0.514c-2.568-0.076-4.641,0.561-6.229,1.864
			c-1.403-2.638-3.501-4.239-6.282-4.731c-0.267-0.051-0.531,0.133-0.579,0.405s0.133,0.532,0.405,0.58
			c2.536,0.449,4.442,1.956,5.702,4.458c-0.372,0.4-0.721,0.83-1.024,1.322c-0.555,0.9-0.949,1.93-1.236,3.025
			c-0.427-0.578-0.913-1.078-1.475-1.461c-1.782-1.219-4.048-1.159-6.728,0.174c-0.247,0.124-0.348,0.423-0.225,0.671
			c0.122,0.247,0.425,0.347,0.67,0.225c2.333-1.163,4.255-1.243,5.719-0.244c0.694,0.475,1.262,1.188,1.736,2.043
			c-0.92,5.529,0.704,12.269,2.035,14.757c0.001,0.002,0.001,0.002,0.002,0.002c0.003,0.008,0.007,0.017,0.011,0.023
			c0.006,0.011,0.019,0.016,0.025,0.025c0.02,0.029,0.036,0.057,0.061,0.08c0.009,0.01,0.013,0.021,0.021,0.028
			c0.017,0.015,0.036,0.021,0.054,0.033c0.004,0.002,0.006,0.004,0.008,0.006c0.011,0.007,0.018,0.017,0.027,0.022
			c0.014,0.007,0.026,0.011,0.041,0.017c0.034,0.017,0.069,0.024,0.106,0.032c0.019,0.004,0.034,0.014,0.053,0.016
			c0.017,0.001,0.029,0.002,0.045,0.002l0,0l0,0h0.001c0.067,0,0.133-0.015,0.191-0.04c0.01-0.004,0.018-0.011,0.025-0.016
			c0.006-0.003,0.014-0.001,0.02-0.004c0.016-0.009,0.023-0.023,0.039-0.033c0.027-0.019,0.055-0.037,0.079-0.06
			c0.004-0.006,0.012-0.008,0.018-0.014c0.002-0.004,0.008-0.011,0.012-0.015c0.006-0.007,0.01-0.015,0.016-0.022
			C18.857,30.167,20.996,19.881,18.527,12.724z M16.733,13.318c0.188-0.306,0.396-0.59,0.613-0.856
			c0.078,0.197,0.164,0.382,0.234,0.588c1.807,5.231,0.953,12.399-0.139,16.112c0.041-3.207-0.209-8.606-2.064-12.164
			C15.643,15.651,16.073,14.389,16.733,13.318z M15.11,18.965c1.146,3.255,1.387,7.581,1.331,10.535
			C15.553,26.82,14.807,22.729,15.11,18.965z"/>
		<path d="M23.299,12.322c0-0.792-0.646-1.438-1.439-1.438s-1.438,0.645-1.438,1.438s0.645,1.438,1.438,1.438
			S23.299,13.114,23.299,12.322z M21.861,13.259c-0.518,0-0.938-0.42-0.938-0.938s0.42-0.938,0.938-0.938s0.938,0.42,0.938,0.938
			S22.377,13.259,21.861,13.259z"/>
		<path d="M27.611,12.797c0-0.792-0.645-1.438-1.438-1.438s-1.438,0.645-1.438,1.438s0.645,1.438,1.438,1.438
			S27.611,13.589,27.611,12.797z M25.236,12.797c0-0.517,0.422-0.938,0.939-0.938c0.516,0,0.938,0.42,0.938,0.938
			s-0.422,0.938-0.938,0.938C25.658,13.735,25.236,13.313,25.236,12.797z"/>
		<path d="M29.416,8.415c-0.793,0-1.438,0.645-1.438,1.438s0.645,1.438,1.438,1.438s1.438-0.646,1.438-1.438
			S30.209,8.415,29.416,8.415z M29.416,10.79c-0.518,0-0.938-0.42-0.938-0.938c0-0.518,0.42-0.938,0.938-0.938
			s0.938,0.42,0.938,0.938C30.354,10.37,29.934,10.79,29.416,10.79z"/>
		<path d="M23.049,7.958c0.793,0,1.438-0.646,1.438-1.438s-0.645-1.438-1.438-1.438s-1.439,0.645-1.439,1.438
			S22.256,7.958,23.049,7.958z M23.049,5.583c0.516,0,0.938,0.42,0.938,0.938c0,0.518-0.422,0.938-0.938,0.938
			c-0.518,0-0.939-0.42-0.939-0.938C22.109,6.003,22.531,5.583,23.049,5.583z"/>
		<path d="M16.831,5.97c0.792,0,1.439-0.645,1.439-1.438s-0.646-1.438-1.439-1.438c-0.793,0-1.438,0.645-1.438,1.438
			S16.038,5.97,16.831,5.97z M16.831,3.595c0.517,0,0.939,0.42,0.939,0.938s-0.422,0.938-0.939,0.938
			c-0.517,0-0.938-0.42-0.938-0.938S16.315,3.595,16.831,3.595z"/>
		<path d="M12.478,2.876c0.793,0,1.438-0.646,1.438-1.438S13.271,0,12.478,0c-0.793,0-1.438,0.645-1.438,1.438
			S11.685,2.876,12.478,2.876z M12.478,0.501c0.517,0,0.938,0.42,0.938,0.938c0,0.518-0.421,0.938-0.938,0.938
			c-0.517,0-0.938-0.42-0.938-0.938C11.54,0.921,11.961,0.501,12.478,0.501z"/>
		<path d="M8.964,5.583c0.793,0,1.438-0.646,1.438-1.438S9.757,2.707,8.964,2.707S7.526,3.352,7.526,4.145S8.171,5.583,8.964,5.583z
			 M8.964,3.208c0.517,0,0.938,0.42,0.938,0.938c0,0.518-0.421,0.938-0.938,0.938s-0.938-0.42-0.938-0.938
			C8.026,3.628,8.448,3.208,8.964,3.208z"/>
		<path d="M5.909,9.146c0.793,0,1.438-0.645,1.438-1.438c0-0.793-0.645-1.438-1.438-1.438S4.471,6.915,4.471,7.708
			C4.471,8.501,5.116,9.146,5.909,9.146z M5.909,6.771c0.517,0,0.938,0.42,0.938,0.938c0,0.518-0.421,0.938-0.938,0.938
			s-0.938-0.42-0.938-0.938C4.971,7.191,5.393,6.771,5.909,6.771z"/>
		<path d="M7.097,16.205c-0.793,0-1.438,0.646-1.438,1.438s0.645,1.438,1.438,1.438s1.438-0.646,1.438-1.438
			S7.89,16.205,7.097,16.205z M7.097,18.58c-0.517,0-0.938-0.42-0.938-0.938s0.421-0.938,0.938-0.938s0.938,0.42,0.938,0.938
			S7.614,18.58,7.097,18.58z"/>
		<path d="M10.618,7.458c-0.793,0-1.438,0.645-1.438,1.438s0.645,1.438,1.438,1.438s1.438-0.646,1.438-1.438
			S11.411,7.458,10.618,7.458z M10.618,9.833c-0.517,0-0.938-0.42-0.938-0.938c0-0.518,0.421-0.938,0.938-0.938
			s0.938,0.42,0.938,0.938C11.556,9.413,11.135,9.833,10.618,9.833z"/>
		<path d="M3.897,11.359c-0.793,0-1.438,0.645-1.438,1.438s0.645,1.438,1.438,1.438s1.438-0.645,1.438-1.438
			S4.69,11.359,3.897,11.359z M3.897,13.734c-0.517,0-0.938-0.42-0.938-0.938c0-0.518,0.421-0.938,0.938-0.938
			c0.517,0,0.938,0.42,0.938,0.938C4.835,13.313,4.413,13.734,3.897,13.734z"/>
		<path d="M11.998,4.533c0,0.666,0.541,1.207,1.207,1.207s1.208-0.542,1.208-1.207c0-0.666-0.542-1.208-1.208-1.208
			S11.998,3.867,11.998,4.533z M13.913,4.533c0,0.39-0.317,0.707-0.708,0.707c-0.39,0-0.707-0.317-0.707-0.707
			s0.317-0.708,0.707-0.708C13.596,3.825,13.913,4.143,13.913,4.533z"/>
		<path d="M11.271,11.998c0,0.666,0.541,1.207,1.207,1.207s1.208-0.542,1.208-1.207c0-0.666-0.542-1.208-1.208-1.208
			S11.271,11.332,11.271,11.998z M12.478,11.29c0.391,0,0.708,0.317,0.708,0.708c0,0.39-0.317,0.707-0.708,0.707
			c-0.39,0-0.707-0.317-0.707-0.707C11.771,11.608,12.088,11.29,12.478,11.29z"/>
		<path d="M10.151,15.442c-0.559,0-1.014,0.455-1.014,1.015c0,0.559,0.455,1.014,1.014,1.014c0.56,0,1.016-0.455,1.016-1.014
			C11.166,15.896,10.71,15.442,10.151,15.442z M10.151,16.97c-0.283,0-0.514-0.229-0.514-0.515c0-0.283,0.23-0.514,0.514-0.514
			c0.284,0,0.516,0.231,0.516,0.514C10.667,16.74,10.435,16.97,10.151,16.97z"/>
		<path d="M3.446,7.938c0-0.56-0.456-1.015-1.016-1.015c-0.559,0-1.014,0.455-1.014,1.015c0,0.559,0.455,1.014,1.014,1.014
			S3.446,8.497,3.446,7.938z M1.916,7.938c0-0.284,0.23-0.515,0.514-0.515c0.284,0,0.516,0.231,0.516,0.515
			c0,0.284-0.231,0.514-0.516,0.514C2.147,8.452,1.916,8.222,1.916,7.938z"/>
		<path d="M23.871,13.95c-0.559,0-1.014,0.455-1.014,1.015c0,0.559,0.455,1.014,1.014,1.014c0.561,0,1.018-0.455,1.018-1.014
			C24.889,14.405,24.432,13.95,23.871,13.95z M23.871,15.479c-0.281,0-0.514-0.23-0.514-0.514c0-0.284,0.23-0.515,0.514-0.515
			c0.285,0,0.518,0.231,0.518,0.515C24.389,15.249,24.156,15.479,23.871,15.479z"/>
		<path d="M29.414,11.941c-0.559,0-1.014,0.455-1.014,1.015c0,0.559,0.455,1.014,1.014,1.014c0.561,0,1.018-0.455,1.018-1.014
			C30.432,12.396,29.975,11.941,29.414,11.941z M29.414,13.469c-0.281,0-0.514-0.23-0.514-0.514c0-0.284,0.23-0.515,0.514-0.515
			c0.285,0,0.518,0.231,0.518,0.515C29.932,13.239,29.699,13.469,29.414,13.469z"/>
		<path d="M7.777,10.79c-0.666,0-1.207,0.542-1.207,1.208s0.541,1.207,1.207,1.207s1.208-0.542,1.208-1.207
			C8.985,11.332,8.443,10.79,7.777,10.79z M7.777,12.705c-0.39,0-0.707-0.317-0.707-0.707c0-0.39,0.317-0.708,0.707-0.708
			c0.391,0,0.708,0.317,0.708,0.708C8.485,12.387,8.167,12.705,7.777,12.705z"/>
		<path d="M3.388,15.479c-0.666,0-1.207,0.542-1.207,1.208s0.541,1.207,1.207,1.207s1.208-0.542,1.208-1.207
			C4.596,16.02,4.054,15.479,3.388,15.479z M3.388,17.393c-0.39,0-0.707-0.316-0.707-0.707c0-0.39,0.317-0.708,0.707-0.708
			c0.391,0,0.708,0.317,0.708,0.708S3.779,17.393,3.388,17.393z"/>
		<path d="M26.367,10.103c0.666,0,1.207-0.542,1.207-1.207c0-0.666-0.541-1.208-1.207-1.208S25.16,8.229,25.16,8.896
			C25.16,9.561,25.701,10.103,26.367,10.103z M26.367,8.188c0.391,0,0.707,0.317,0.707,0.708c0,0.39-0.316,0.707-0.707,0.707
			S25.66,9.286,25.66,8.896C25.66,8.506,25.979,8.188,26.367,8.188z"/>
		<path d="M27.324,14.521c-0.666,0-1.207,0.542-1.207,1.208s0.541,1.207,1.207,1.207s1.209-0.542,1.209-1.207
			C28.533,15.062,27.99,14.521,27.324,14.521z M27.324,16.436c-0.389,0-0.707-0.316-0.707-0.707c0-0.39,0.318-0.708,0.707-0.708
			c0.393,0,0.709,0.317,0.709,0.708C28.033,16.117,27.717,16.436,27.324,16.436z"/>
		<path d="M19.715,7.958c0.666,0,1.209-0.542,1.209-1.207c0-0.666-0.543-1.208-1.209-1.208s-1.207,0.542-1.207,1.208
			S19.049,7.958,19.715,7.958z M19.715,6.044c0.391,0,0.709,0.317,0.709,0.708c0,0.39-0.318,0.707-0.709,0.707
			s-0.707-0.317-0.707-0.707C19.008,6.361,19.324,6.044,19.715,6.044z"/>
		<path d="M20.092,3.833c0.666,0,1.209-0.542,1.209-1.207c0-0.666-0.543-1.208-1.209-1.208s-1.207,0.542-1.207,1.208
			S19.426,3.833,20.092,3.833z M20.092,1.919c0.391,0,0.709,0.317,0.709,0.708c0,0.39-0.318,0.707-0.709,0.707
			s-0.707-0.317-0.707-0.707C19.385,2.236,19.701,1.919,20.092,1.919z"/>
		<path d="M23.992,3.208c0.793,0,1.439-0.646,1.439-1.438s-0.646-1.438-1.439-1.438s-1.438,0.645-1.438,1.438
			S23.199,3.208,23.992,3.208z M23.992,0.833c0.518,0,0.939,0.42,0.939,0.938c0,0.518-0.422,0.938-0.939,0.938
			c-0.516,0-0.938-0.42-0.938-0.938C23.055,1.253,23.477,0.833,23.992,0.833z"/>
		<path d="M27.361,6.771c0.793,0,1.439-0.645,1.439-1.438c0-0.793-0.646-1.438-1.439-1.438s-1.438,0.645-1.438,1.438
			C25.924,6.126,26.568,6.771,27.361,6.771z M27.361,4.396c0.518,0,0.939,0.42,0.939,0.938c0,0.518-0.422,0.938-0.939,0.938
			c-0.516,0-0.938-0.42-0.938-0.938C26.424,4.816,26.846,4.396,27.361,4.396z"/>
	</g>
</g>
</svg>